<svg xmlns="http://www.w3.org/2000/svg" width="48" height="48" viewBox="0 0 48 48"><defs><style>.a{fill:none;stroke:#000;stroke-width:4px;}.b{fill-rule:evenodd;}</style></defs><g transform="translate(2 2)"><circle class="a" cx="22" cy="22" r="22"/><path class="b" d="M13.112,18.932q.417.273,2.517,1.619t3.217,2.074q.123.08.522.347t.663.432q.264.165.638.369a3.854,3.854,0,0,0,.706.307,2.088,2.088,0,0,0,.614.1h.025a2.088,2.088,0,0,0,.614-.1,3.859,3.859,0,0,0,.706-.307q.374-.2.638-.369t.663-.432q.4-.267.522-.347L30.9,18.932a5.632,5.632,0,0,0,1.5-1.4,2.852,2.852,0,0,0,.6-1.716,1.681,1.681,0,0,0-.583-1.284A1.977,1.977,0,0,0,31.036,14H12.964a1.816,1.816,0,0,0-1.455.591A2.183,2.183,0,0,0,11,16.068a2.546,2.546,0,0,0,.675,1.551A5.9,5.9,0,0,0,13.112,18.932Zm18.661,1.216q-4.026,2.523-6.114,3.92-.7.477-1.136.744a7.234,7.234,0,0,1-1.16.545,3.778,3.778,0,0,1-1.35.278h-.025a3.779,3.779,0,0,1-1.35-.278,7.24,7.24,0,0,1-1.16-.545q-.436-.267-1.136-.744-1.657-1.125-6.1-3.92A6.4,6.4,0,0,1,11,19.159v9.023a1.688,1.688,0,0,0,.577,1.284A1.97,1.97,0,0,0,12.964,30H31.036a1.97,1.97,0,0,0,1.387-.534A1.688,1.688,0,0,0,33,28.182V19.159A6.65,6.65,0,0,1,31.772,20.148Z"/></g></svg>