<svg xmlns="http://www.w3.org/2000/svg" width="48" height="48" viewBox="0 0 48 48"><defs><style>.a{fill:none;stroke:#000;stroke-width:4px;}.b{fill-rule:evenodd;}</style></defs><g transform="translate(2 2)"><circle class="a" cx="22" cy="22" r="22"/><path class="b" d="M10,22.3a12.283,12.283,0,0,0,8.207,11.674c.6.113.819-.267.819-.593,0-.292-.01-1.066-.016-2.092-3.338.743-4.042-1.65-4.042-1.65a3.238,3.238,0,0,0-1.333-1.8c-1.09-.764.083-.748.083-.748a2.527,2.527,0,0,1,1.838,1.268,2.52,2.52,0,0,0,3.493,1.022,2.658,2.658,0,0,1,.762-1.645c-2.665-.31-5.466-1.366-5.466-6.08a4.825,4.825,0,0,1,1.235-3.3A4.531,4.531,0,0,1,15.7,15.1s1.008-.332,3.3,1.261a11.111,11.111,0,0,1,6.009,0c2.29-1.592,3.3-1.261,3.3-1.261a4.526,4.526,0,0,1,.119,3.256,4.816,4.816,0,0,1,1.233,3.3c0,4.726-2.805,5.766-5.479,6.071a2.976,2.976,0,0,1,.814,2.278c0,1.645-.014,2.972-.014,3.376,0,.329.216.712.825.591A12.284,12.284,0,0,0,34,22.3,12.156,12.156,0,0,0,22,10,12.155,12.155,0,0,0,10,22.3Z"/></g></svg>