<svg xmlns="http://www.w3.org/2000/svg" width="48" height="48" viewBox="0 0 48 48"><defs><style>.a{fill:none;stroke:#000;stroke-width:4px;}.b{fill-rule:evenodd;}</style></defs><g transform="translate(2 2)"><circle class="a" cx="22" cy="22" r="22"/><path class="b" d="M12.5,18.413h3.9V32H12.5Zm1.85-1.7h-.028A2.254,2.254,0,0,1,12,14.36,2.274,2.274,0,0,1,14.381,12a2.263,2.263,0,0,1,2.351,2.356,2.269,2.269,0,0,1-2.378,2.358ZM32,32H27.58V24.968c0-1.84-.691-3.1-2.212-3.1a2.265,2.265,0,0,0-2.111,1.665,3.383,3.383,0,0,0-.1,1.11V32H18.783s.056-12.455,0-13.587h4.379v2.132a3.96,3.96,0,0,1,3.891-2.263c2.77,0,4.947,1.955,4.947,6.162V32Z"/></g></svg>